<svg xmlns="http://www.w3.org/2000/svg" xmlns:xlink="http://www.w3.org/1999/xlink" width="500" zoomAndPan="magnify" viewBox="0 0 375 374.999991" height="500" preserveAspectRatio="xMidYMid meet" version="1.2"><defs><clipPath id="aaaa7fa443"><path d="M 187.5 0 C 83.945312 0 0 83.945312 0 187.5 C 0 291.054688 83.945312 375 187.5 375 C 291.054688 375 375 291.054688 375 187.5 C 375 83.945312 291.054688 0 187.5 0 Z M 187.5 0 "/></clipPath><clipPath id="acd63a117a"><path d="M 77.484375 16.039062 L 297.230469 16.039062 L 297.230469 259.542969 L 77.484375 259.542969 Z M 77.484375 16.039062 "/></clipPath></defs><g id="8dfc449e52"><g clip-rule="nonzero" clip-path="url(#aaaa7fa443)"><rect x="0" width="375" y="0" height="374.999991" style="fill:#f0f6f4;fill-opacity:1;stroke:none;"/></g><g clip-rule="nonzero" clip-path="url(#acd63a117a)"><path style=" stroke:none;fill-rule:nonzero;fill:#3469b3;fill-opacity:1;" d="M 295.203125 80.742188 C 245.105469 -1.359375 135.734375 3.996094 85.917969 45.269531 C 99.167969 50.089844 109.441406 55.671875 109.441406 55.671875 C 90.996094 76.640625 76.113281 112.316406 77.585938 144.136719 C 88.902344 76.070312 139.886719 39.023438 199.738281 39.488281 C 231.113281 39.730469 260.636719 56.496094 277.488281 85.125 C 278.964844 87.632812 278.5 90.828125 276.34375 92.777344 C 269.621094 98.851562 261.351562 102.765625 251.652344 105.21875 C 231.9375 110.203125 211.875 97.625 208.152344 77.589844 C 208.089844 77.246094 208.027344 76.898438 207.972656 76.554688 C 206.070312 85.398438 209.355469 102.566406 215.660156 109.15625 C 183.746094 111.648438 147.601562 112.449219 125.214844 139.410156 C 91.550781 179.945312 110.792969 264.433594 195.746094 259.320312 C 261.6875 255.351562 265.472656 197.863281 265.472656 197.863281 C 254.003906 214.898438 234.449219 212.964844 225.527344 218.042969 C 234.578125 199.847656 227.121094 174.238281 217.597656 168.910156 C 219.683594 186.394531 211.515625 204.84375 196.914062 214.636719 C 182.316406 224.429688 160.519531 224.871094 145.753906 215.328125 C 130.988281 205.789062 123.324219 188.917969 126.785156 166.722656 C 129.660156 148.277344 143.625 129.960938 169.457031 125.800781 C 171.039062 139.703125 176.671875 153.933594 176.671875 153.933594 C 183.808594 134.527344 201.8125 125.03125 216.628906 122.855469 C 226.742188 122.203125 236.863281 121.550781 246.835938 119.875 C 264.980469 116.828125 282.714844 109.953125 294.230469 96.207031 C 297.902344 91.828125 298.183594 85.621094 295.203125 80.742188 "/></g><path style=" stroke:none;fill-rule:nonzero;fill:#3469b3;fill-opacity:1;" d="M 246.789062 65.84375 C 246.789062 63.035156 244.515625 60.757812 241.714844 60.757812 C 238.914062 60.757812 236.640625 63.035156 236.640625 65.84375 C 236.640625 68.652344 238.914062 70.929688 241.714844 70.929688 C 244.515625 70.929688 246.789062 68.652344 246.789062 65.84375 "/><g style="fill:#3469b3;fill-opacity:1;"><g transform="translate(44.16006, 298.087656)"><path style="stroke:none" d="M 1.796875 0 L 1.796875 -25.984375 L 20.9375 -25.984375 L 20.9375 -18.046875 L 11.1875 -18.046875 L 11.1875 -14.796875 L 18.765625 -14.796875 L 18.765625 -7.9375 L 11.1875 -7.9375 L 11.1875 0 Z M 1.796875 0 "/></g></g><g style="fill:#3469b3;fill-opacity:1;"><g transform="translate(72.667691, 298.087656)"><path style="stroke:none" d="M 1.796875 0 L 1.796875 -25.984375 L 11.1875 -25.984375 L 11.1875 0 Z M 1.796875 0 "/></g></g><g style="fill:#3469b3;fill-opacity:1;"><g transform="translate(92.696064, 298.087656)"><path style="stroke:none" d="M 13.25 0.90625 C 10.957031 0.90625 8.914062 0.613281 7.125 0.03125 C 5.332031 -0.539062 3.890625 -1.429688 2.796875 -2.640625 C 1.703125 -3.859375 1.054688 -5.457031 0.859375 -7.4375 L 9.203125 -9.015625 C 9.421875 -7.910156 9.9375 -7.0625 10.75 -6.46875 C 11.570312 -5.882812 12.570312 -5.59375 13.75 -5.59375 C 14.8125 -5.59375 15.660156 -5.757812 16.296875 -6.09375 C 16.929688 -6.4375 17.25 -6.894531 17.25 -7.46875 C 17.25 -7.945312 16.988281 -8.332031 16.46875 -8.625 C 15.957031 -8.914062 15.132812 -9.144531 14 -9.3125 L 10.9375 -9.75 C 7.519531 -10.300781 5.039062 -11.234375 3.5 -12.546875 C 1.957031 -13.859375 1.1875 -15.691406 1.1875 -18.046875 C 1.1875 -19.898438 1.707031 -21.488281 2.75 -22.8125 C 3.800781 -24.132812 5.226562 -25.144531 7.03125 -25.84375 C 8.84375 -26.539062 10.867188 -26.890625 13.109375 -26.890625 C 15.128906 -26.890625 16.960938 -26.582031 18.609375 -25.96875 C 20.253906 -25.351562 21.597656 -24.472656 22.640625 -23.328125 C 23.691406 -22.191406 24.3125 -20.828125 24.5 -19.234375 L 16.28125 -17.5 C 16.15625 -18.414062 15.78125 -19.125 15.15625 -19.625 C 14.53125 -20.132812 13.773438 -20.390625 12.890625 -20.390625 C 12.117188 -20.390625 11.5 -20.234375 11.03125 -19.921875 C 10.5625 -19.609375 10.328125 -19.1875 10.328125 -18.65625 C 10.328125 -18.195312 10.570312 -17.835938 11.0625 -17.578125 C 11.550781 -17.316406 12.335938 -17.113281 13.421875 -16.96875 L 16.5625 -16.5625 C 19.957031 -16.132812 22.425781 -15.265625 23.96875 -13.953125 C 25.507812 -12.640625 26.28125 -10.753906 26.28125 -8.296875 C 26.28125 -6.253906 25.710938 -4.550781 24.578125 -3.1875 C 23.453125 -1.832031 21.90625 -0.8125 19.9375 -0.125 C 17.976562 0.5625 15.75 0.90625 13.25 0.90625 Z M 13.25 0.90625 "/></g></g><g style="fill:#3469b3;fill-opacity:1;"><g transform="translate(126.363412, 298.087656)"><path style="stroke:none" d="M 1.796875 0 L 1.796875 -25.984375 L 11.1875 -25.984375 L 11.1875 -16.96875 L 18.046875 -16.96875 L 18.046875 -25.984375 L 27.4375 -25.984375 L 27.4375 0 L 18.046875 0 L 18.046875 -9.75 L 11.1875 -9.75 L 11.1875 0 Z M 1.796875 0 "/></g></g><g style="fill:#3469b3;fill-opacity:1;"><g transform="translate(162.628661, 298.087656)"><path style="stroke:none" d="M 7.578125 0 L 7.578125 -18.046875 L 0.71875 -18.046875 L 0.71875 -25.984375 L 23.828125 -25.984375 L 23.828125 -18.046875 L 16.96875 -18.046875 L 16.96875 0 Z M 7.578125 0 "/></g></g><g style="fill:#3469b3;fill-opacity:1;"><g transform="translate(194.203263, 298.087656)"><path style="stroke:none" d="M 21.796875 0.546875 C 20.253906 0.546875 18.925781 0.117188 17.8125 -0.734375 C 16.695312 -1.585938 15.894531 -2.785156 15.40625 -4.328125 L 14.765625 -6.5 C 14.597656 -7.070312 14.347656 -7.570312 14.015625 -8 C 13.691406 -8.4375 13.21875 -8.65625 12.59375 -8.65625 L 11.1875 -8.65625 L 11.1875 0 L 1.796875 0 L 1.796875 -25.984375 L 15.984375 -25.984375 C 19.429688 -25.984375 22.078125 -25.242188 23.921875 -23.765625 C 25.773438 -22.285156 26.703125 -20.148438 26.703125 -17.359375 C 26.703125 -15.722656 26.25 -14.285156 25.34375 -13.046875 C 24.445312 -11.804688 23.144531 -10.875 21.4375 -10.25 L 21.4375 -10.21875 C 22.09375 -10.019531 22.582031 -9.703125 22.90625 -9.265625 C 23.226562 -8.835938 23.5 -8.273438 23.71875 -7.578125 L 24.140625 -6.140625 C 24.265625 -5.796875 24.4375 -5.5 24.65625 -5.25 C 24.875 -5 25.160156 -4.875 25.515625 -4.875 C 25.753906 -4.875 25.992188 -4.914062 26.234375 -5 C 26.472656 -5.082031 26.679688 -5.171875 26.859375 -5.265625 L 27.96875 -1.1875 C 27.226562 -0.65625 26.316406 -0.234375 25.234375 0.078125 C 24.148438 0.390625 23.003906 0.546875 21.796875 0.546875 Z M 11.1875 -14.4375 L 14.40625 -14.4375 C 16.351562 -14.4375 17.328125 -15.28125 17.328125 -16.96875 C 17.328125 -18.644531 16.351562 -19.484375 14.40625 -19.484375 L 11.1875 -19.484375 Z M 11.1875 -14.4375 "/></g></g><g style="fill:#3469b3;fill-opacity:1;"><g transform="translate(229.566465, 298.087656)"><path style="stroke:none" d="M 0 0 L 8.703125 -25.984375 L 20.25 -25.984375 L 28.953125 0 L 19.171875 0 L 18.15625 -3.96875 L 10.71875 -3.96875 L 9.703125 0 Z M 12.0625 -10.109375 L 16.8125 -10.109375 L 14.515625 -19.171875 L 14.4375 -19.171875 Z M 12.0625 -10.109375 "/></g></g><g style="fill:#3469b3;fill-opacity:1;"><g transform="translate(265.543071, 298.087656)"><path style="stroke:none" d="M 15.265625 0.90625 C 12.359375 0.90625 9.828125 0.332031 7.671875 -0.8125 C 5.515625 -1.957031 3.847656 -3.566406 2.671875 -5.640625 C 1.492188 -7.722656 0.90625 -10.175781 0.90625 -13 C 0.90625 -15.832031 1.46875 -18.28125 2.59375 -20.34375 C 3.726562 -22.414062 5.320312 -24.023438 7.375 -25.171875 C 9.4375 -26.316406 11.875 -26.890625 14.6875 -26.890625 C 17.070312 -26.890625 19.179688 -26.472656 21.015625 -25.640625 C 22.859375 -24.816406 24.34375 -23.648438 25.46875 -22.140625 C 26.601562 -20.640625 27.28125 -18.851562 27.5 -16.78125 L 19.015625 -14.65625 C 18.773438 -15.976562 18.304688 -17.023438 17.609375 -17.796875 C 16.910156 -18.566406 15.945312 -18.953125 14.71875 -18.953125 C 13.375 -18.953125 12.296875 -18.414062 11.484375 -17.34375 C 10.679688 -16.269531 10.28125 -14.820312 10.28125 -13 C 10.28125 -11.164062 10.742188 -9.710938 11.671875 -8.640625 C 12.597656 -7.566406 13.84375 -7.03125 15.40625 -7.03125 C 16.800781 -7.03125 17.976562 -7.484375 18.9375 -8.390625 C 19.90625 -9.296875 20.507812 -10.503906 20.75 -12.015625 L 29.453125 -11.109375 C 29.253906 -8.660156 28.539062 -6.539062 27.3125 -4.75 C 26.09375 -2.957031 24.453125 -1.566406 22.390625 -0.578125 C 20.335938 0.410156 17.960938 0.90625 15.265625 0.90625 Z M 15.265625 0.90625 "/></g></g><g style="fill:#3469b3;fill-opacity:1;"><g transform="translate(302.566034, 298.087656)"><path style="stroke:none" d="M 1.796875 0 L 1.796875 -25.984375 L 11.1875 -25.984375 L 11.1875 -18.234375 L 11.265625 -18.1875 L 16.96875 -25.984375 L 28.265625 -25.984375 L 19.671875 -16.3125 L 28.265625 0 L 16.96875 0 L 13.25 -9.234375 L 11.1875 -6.96875 L 11.1875 0 Z M 1.796875 0 "/></g></g></g></svg>